<?xml version="1.0" encoding="utf-8"?>
<!-- Generator: Adobe Illustrator 24.0.3, SVG Export Plug-In . SVG Version: 6.00 Build 0)  -->
<svg version="1.0" id="Layer_1" xmlns="http://www.w3.org/2000/svg" xmlns:xlink="http://www.w3.org/1999/xlink" x="0px" y="0px"
   viewBox="0 0 1000 1000" enable-background="new 0 0 1000 1000" xml:space="preserve">
    <defs>
    <linearGradient id="myGradient">
      <stop offset="0%"  stop-color="#d5c877" />
      <stop offset="74%" stop-color="#b18d37" />
    </linearGradient>
  </defs>
<g fill="url('#myGradient')">

  <path d="M79.28,285.93h96.41v42.63c0,1.71,1.39,3.1,3.1,3.1h46.37c1.71,0,3.1-1.38,3.1-3.1v-42.63h26.21c1.71,0,3.1-1.38,3.1-3.1
    v-40.57c0-1.71-1.39-3.1-3.1-3.1h-26.21v-138.6c0-1.71-1.39-3.1-3.1-3.1h-52.81c-1.04,0-2.02,0.52-2.59,1.4L76.69,240.56
    c-0.33,0.5-0.51,1.09-0.51,1.7v40.57C76.18,284.54,77.57,285.93,79.28,285.93z M133.25,239.16l42.43-65.95v65.95H133.25z"/>
  <path d="M725.74,817.52c-31.75,0.3-69.4,4.05-111.92,11.15c-0.34,0.06-0.67,0.15-0.98,0.28c-42.42,17.22-87.31,25.96-133.42,25.96
    C283.71,854.91,124.5,695.7,124.5,500c0-29.03,3.53-57.95,10.5-85.96c0.09-0.37,0.14-0.74,0.14-1.12v-68.54
    c0-2.56-2.08-4.64-4.64-4.64H60.06c-1.94,0-3.68,1.21-4.35,3.03C37.04,393.05,27.58,445.95,27.58,500
    c0,249.14,202.69,451.83,451.83,451.83c110.23,0,216.41-40.17,298.97-113.09c0.66-0.58,1.14-1.34,1.38-2.18
    c0.95-3.23,0.37-6.46-1.61-9.08C774.49,822.65,765.2,817.13,725.74,817.52z"/>
  <path d="M271.77,209.06c1.53,0.8,3.39,0.68,4.81-0.31c59.69-41.65,129.83-63.66,202.83-63.66c195.7,0,354.91,159.21,354.91,354.91
    c0,20.25-1.74,40.64-5.18,60.6c-0.34,1.99,0.65,3.97,2.45,4.9c0.29,0.15,0.59,0.27,0.9,0.35c2.67,0.93,33.6,12.32,50.74,45.05
    c5.97,11.4,11.95,16.97,18.23,16.97c0.38,0,0.76-0.02,1.14-0.06c6.88-0.73,12.23-7.81,15.95-21.2
    c8.42-34.79,12.69-70.67,12.69-106.62c0-249.14-202.69-451.83-451.83-451.83c-72.16,0-143.95,17.44-207.63,50.45
    c-1.54,0.8-2.51,2.39-2.51,4.12v102.21C269.28,206.68,270.24,208.26,271.77,209.06z"/>
  <path d="M969.92,820.53c-9.01-33.88-24.27-64.94-44.98-92.97c-32.38-43.81-71.77-81.18-111.96-117.62
    c-15.7-14.24-31.65-28.82-49.6-39.76c-17.32-10.55-36.93-17.94-56.31-24.36c-34.18-11.32-69.33-15.14-104.27-3.36
    c-28.08,9.47-56.61,16.2-86.14,18c-30.13,1.83-60.3,3.17-89.58-7.09c-5.02-1.76-10.68-2.25-16.05-2.27
    c-7.73-0.02-10.69,3.98-9.28,11.6c0.48,2.63,1.56,5.21,2.71,7.65c18.4,39.22,64.24,61.12,106.49,52.09
    c24.88-5.32,50.12-8.99,75.25-13.04c15.01-2.42,29.68-0.49,43.36,6.36c11.68,5.85,13.38,14.32,5.51,24.79
    c-1.19,1.58-2.52,3.07-3.96,4.42c-27.83,26.31-62.66,35.04-98.76,32.2c-59.9-4.72-112.17-29.42-157.35-69.55
    c-20.3-18.03-41.76-34.91-63.81-50.77c-22.53-16.21-47.44-28.56-73.8-37.6c-12.3-4.22-24.23,4.5-21.28,15.69
    c2.79,10.6,9.75,18.78,18.47,25.22c12.69,9.38,26.93,17.09,38.18,27.93c36.02,34.69,71.09,70.37,106.28,105.9
    c22.77,22.99,46.84,44.01,76.49,57.93c61.13,28.69,124.92,32.14,190.09,19.61c26.47-5.09,52.58-12.21,79.76-12.13
    c74.73,0.23,138.92,27.45,193.9,77.15c7.33,6.63,15.2,10.77,24.34,13.18c17.83,4.69,23.33,1.8,28.82-14.79c0-0.99,0-1.98,0-2.97
    C971.6,828.15,970.93,824.3,969.92,820.53z"/>
</g>
</svg>
